<svg width="66" height="17" viewBox="0 0 66 17" fill="none" xmlns="http://www.w3.org/2000/svg">
<path d="M5.8853 16H0.729048V1.45455H5.92791C7.39098 1.45455 8.65045 1.74574 9.70632 2.32812C10.7622 2.90578 11.5742 3.73674 12.1424 4.82102C12.7153 5.9053 13.0018 7.20265 13.0018 8.71307C13.0018 10.2282 12.7153 11.5303 12.1424 12.6193C11.5742 13.7083 10.7575 14.544 9.69212 15.1264C8.63151 15.7088 7.36257 16 5.8853 16ZM3.80433 13.3651H5.75746C6.66655 13.3651 7.43123 13.2041 8.05149 12.8821C8.67649 12.5554 9.14524 12.0511 9.45774 11.3693C9.77498 10.6828 9.93359 9.79735 9.93359 8.71307C9.93359 7.63826 9.77498 6.75994 9.45774 6.07812C9.14524 5.39631 8.67886 4.89441 8.05859 4.57244C7.43833 4.25047 6.67365 4.08949 5.76456 4.08949H3.80433V13.3651ZM20.1946 16.2131C19.0724 16.2131 18.1065 15.9858 17.2969 15.5312C16.492 15.072 15.8717 14.4233 15.4361 13.5852C15.0005 12.7424 14.7827 11.7457 14.7827 10.5952C14.7827 9.47301 15.0005 8.48816 15.4361 7.64062C15.8717 6.79309 16.4848 6.13258 17.2756 5.65909C18.071 5.18561 19.0038 4.94886 20.0739 4.94886C20.7936 4.94886 21.4635 5.06487 22.0838 5.29688C22.7088 5.52415 23.2533 5.86742 23.7173 6.3267C24.1861 6.78598 24.5507 7.36364 24.8111 8.05966C25.0715 8.75095 25.2017 9.56061 25.2017 10.4886V11.3196H15.9901V9.4446H22.3537C22.3537 9.009 22.259 8.62311 22.0696 8.28693C21.8802 7.95076 21.6174 7.68797 21.2812 7.49858C20.9498 7.30445 20.5639 7.20739 20.1236 7.20739C19.6643 7.20739 19.2571 7.31392 18.902 7.52699C18.5516 7.73532 18.277 8.01705 18.0781 8.37216C17.8793 8.72254 17.7775 9.11316 17.7727 9.54403V11.3267C17.7727 11.8665 17.8722 12.3329 18.071 12.7259C18.2746 13.1188 18.5611 13.4219 18.9304 13.6349C19.2997 13.848 19.7377 13.9545 20.2443 13.9545C20.5805 13.9545 20.8883 13.9072 21.1676 13.8125C21.447 13.7178 21.6861 13.5758 21.8849 13.3864C22.0838 13.197 22.2353 12.965 22.3395 12.6903L25.1378 12.875C24.9957 13.5473 24.7045 14.1345 24.2642 14.6364C23.8286 15.1335 23.2652 15.5218 22.5739 15.8011C21.8873 16.0758 21.0942 16.2131 20.1946 16.2131ZM37.0536 5.09091L33.2397 16H29.8306L26.0167 5.09091H29.2127L31.4783 12.8963H31.592L33.8505 5.09091H37.0536ZM38.6019 16V5.09091H41.6275V16H38.6019ZM40.1218 3.68466C39.672 3.68466 39.2861 3.53551 38.9641 3.23722C38.6469 2.93419 38.4883 2.57197 38.4883 2.15057C38.4883 1.7339 38.6469 1.37642 38.9641 1.07812C39.2861 0.775094 39.672 0.623579 40.1218 0.623579C40.5716 0.623579 40.9551 0.775094 41.2724 1.07812C41.5943 1.37642 41.7553 1.7339 41.7553 2.15057C41.7553 2.57197 41.5943 2.93419 41.2724 3.23722C40.9551 3.53551 40.5716 3.68466 40.1218 3.68466ZM48.9801 16.2131C47.8627 16.2131 46.9015 15.9763 46.0966 15.5028C45.2964 15.0246 44.6809 14.3617 44.25 13.5142C43.8239 12.6667 43.6108 11.6913 43.6108 10.5881C43.6108 9.47064 43.8262 8.49053 44.2571 7.64773C44.6927 6.80019 45.3106 6.13968 46.1108 5.66619C46.911 5.18797 47.8627 4.94886 48.9659 4.94886C49.9176 4.94886 50.7509 5.12169 51.4659 5.46733C52.1809 5.81297 52.7467 6.2983 53.1634 6.9233C53.58 7.5483 53.8097 8.2822 53.8523 9.125H50.9972C50.9167 8.58049 50.7036 8.14252 50.358 7.81108C50.017 7.47491 49.5696 7.30682 49.0156 7.30682C48.5469 7.30682 48.1373 7.43466 47.7869 7.69034C47.4413 7.94129 47.1714 8.30824 46.9773 8.79119C46.7831 9.27415 46.6861 9.8589 46.6861 10.5455C46.6861 11.2415 46.7808 11.8333 46.9702 12.321C47.1643 12.8087 47.4366 13.1804 47.7869 13.4361C48.1373 13.6918 48.5469 13.8196 49.0156 13.8196C49.3613 13.8196 49.6714 13.7486 49.946 13.6065C50.2254 13.4645 50.455 13.2585 50.6349 12.9886C50.8196 12.714 50.9403 12.3849 50.9972 12.0014H53.8523C53.8049 12.8348 53.5777 13.5687 53.1705 14.2031C52.768 14.8329 52.2116 15.3253 51.5014 15.6804C50.7912 16.0355 49.9508 16.2131 48.9801 16.2131ZM60.761 16.2131C59.6388 16.2131 58.6729 15.9858 57.8633 15.5312C57.0584 15.072 56.4381 14.4233 56.0025 13.5852C55.5669 12.7424 55.3491 11.7457 55.3491 10.5952C55.3491 9.47301 55.5669 8.48816 56.0025 7.64062C56.4381 6.79309 57.0513 6.13258 57.842 5.65909C58.6374 5.18561 59.5702 4.94886 60.6403 4.94886C61.36 4.94886 62.0299 5.06487 62.6502 5.29688C63.2752 5.52415 63.8197 5.86742 64.2837 6.3267C64.7525 6.78598 65.1171 7.36364 65.3775 8.05966C65.6379 8.75095 65.7681 9.56061 65.7681 10.4886V11.3196H56.5565V9.4446H62.9201C62.9201 9.009 62.8254 8.62311 62.636 8.28693C62.4466 7.95076 62.1838 7.68797 61.8477 7.49858C61.5162 7.30445 61.1303 7.20739 60.69 7.20739C60.2307 7.20739 59.8235 7.31392 59.4684 7.52699C59.118 7.73532 58.8434 8.01705 58.6445 8.37216C58.4457 8.72254 58.3439 9.11316 58.3391 9.54403V11.3267C58.3391 11.8665 58.4386 12.3329 58.6374 12.7259C58.841 13.1188 59.1275 13.4219 59.4968 13.6349C59.8661 13.848 60.3041 13.9545 60.8107 13.9545C61.1469 13.9545 61.4547 13.9072 61.734 13.8125C62.0134 13.7178 62.2525 13.5758 62.4513 13.3864C62.6502 13.197 62.8017 12.965 62.9059 12.6903L65.7042 12.875C65.5621 13.5473 65.271 14.1345 64.8306 14.6364C64.395 15.1335 63.8316 15.5218 63.1403 15.8011C62.4537 16.0758 61.6606 16.2131 60.761 16.2131Z" fill="#256183"/>
</svg>
