<svg width="68" height="16" viewBox="0 0 68 16" fill="none" xmlns="http://www.w3.org/2000/svg">
<path d="M0.439986 15V0.454545H3.51527V6.45597H9.75817V0.454545H12.8263V15H9.75817V8.99148H3.51527V15H0.439986ZM22.3008 10.3551V4.09091H25.3263V15H22.4215V13.0185H22.3079C22.0617 13.6577 21.6521 14.1714 21.0792 14.5597C20.511 14.9479 19.8174 15.142 18.9982 15.142C18.2691 15.142 17.6275 14.9763 17.0735 14.6449C16.5195 14.3134 16.0863 13.8423 15.7738 13.2315C15.466 12.6207 15.3098 11.8892 15.305 11.0369V4.09091H18.3306V10.4972C18.3353 11.1411 18.5082 11.6501 18.8491 12.0241C19.19 12.3982 19.6469 12.5852 20.2198 12.5852C20.5844 12.5852 20.9253 12.5024 21.2425 12.3366C21.5598 12.1662 21.8155 11.9152 22.0096 11.5838C22.2085 11.2524 22.3055 10.8428 22.3008 10.3551ZM27.7464 15V4.09091H30.63V6.01562H30.7578C30.9851 5.37642 31.3639 4.87216 31.8942 4.50284C32.4245 4.13352 33.0589 3.94886 33.7976 3.94886C34.5457 3.94886 35.1825 4.13589 35.7081 4.50994C36.2337 4.87926 36.584 5.38116 36.7592 6.01562H36.8729C37.0954 5.39062 37.4979 4.8911 38.0803 4.51705C38.6674 4.13826 39.361 3.94886 40.1612 3.94886C41.1792 3.94886 42.0054 4.2732 42.6399 4.92188C43.2791 5.56581 43.5987 6.47964 43.5987 7.66335V15H40.5803V8.25994C40.5803 7.65388 40.4193 7.19934 40.0973 6.89631C39.7753 6.59328 39.3729 6.44176 38.8899 6.44176C38.3407 6.44176 37.9122 6.61695 37.6044 6.96733C37.2966 7.31297 37.1428 7.76989 37.1428 8.33807V15H34.2095V8.19602C34.2095 7.66098 34.0556 7.23485 33.7479 6.91761C33.4448 6.60038 33.0447 6.44176 32.5476 6.44176C32.2114 6.44176 31.9084 6.52699 31.6385 6.69744C31.3733 6.86316 31.1626 7.09754 31.0064 7.40057C30.8501 7.69886 30.772 8.04924 30.772 8.4517V15H27.7464ZM49.0994 15.206C48.4034 15.206 47.7831 15.0852 47.2386 14.8438C46.6941 14.5975 46.2633 14.2353 45.946 13.7571C45.6335 13.2741 45.4773 12.6728 45.4773 11.9531C45.4773 11.3471 45.5885 10.8381 45.8111 10.4261C46.0336 10.0142 46.3366 9.68277 46.7202 9.43182C47.1037 9.18087 47.5393 8.99148 48.027 8.86364C48.5194 8.7358 49.0355 8.64583 49.5753 8.59375C50.2098 8.52746 50.7211 8.46591 51.1094 8.40909C51.4976 8.34754 51.7794 8.25758 51.9545 8.1392C52.1297 8.02083 52.2173 7.84564 52.2173 7.61364V7.57102C52.2173 7.12121 52.0753 6.7732 51.7912 6.52699C51.5118 6.28078 51.1141 6.15767 50.598 6.15767C50.0535 6.15767 49.6203 6.27841 49.2983 6.51989C48.9763 6.75663 48.7633 7.05492 48.6591 7.41477L45.8608 7.1875C46.0028 6.52462 46.2822 5.9517 46.6989 5.46875C47.1155 4.98106 47.6529 4.60701 48.3111 4.34659C48.974 4.08144 49.741 3.94886 50.6122 3.94886C51.2183 3.94886 51.7983 4.01989 52.3523 4.16193C52.911 4.30398 53.4058 4.52415 53.8366 4.82244C54.2723 5.12074 54.6155 5.50426 54.8665 5.97301C55.1174 6.43703 55.2429 6.99337 55.2429 7.64205V15H52.3736V13.4872H52.2884C52.1132 13.8281 51.8788 14.1288 51.5852 14.3892C51.2917 14.6449 50.9389 14.8461 50.527 14.9929C50.1151 15.1349 49.6392 15.206 49.0994 15.206ZM49.9659 13.1179C50.411 13.1179 50.804 13.0303 51.1449 12.8551C51.4858 12.6752 51.7533 12.4337 51.9474 12.1307C52.1416 11.8277 52.2386 11.4844 52.2386 11.1009V9.94318C52.1439 10.0047 52.0137 10.0616 51.848 10.1136C51.687 10.161 51.5047 10.206 51.3011 10.2486C51.0975 10.2865 50.8939 10.322 50.6903 10.3551C50.4867 10.3835 50.3021 10.4096 50.1364 10.4332C49.7813 10.4853 49.4711 10.5682 49.206 10.6818C48.9408 10.7955 48.7348 10.9493 48.5881 11.1435C48.4413 11.3329 48.3679 11.5696 48.3679 11.8537C48.3679 12.2656 48.517 12.5805 48.8153 12.7983C49.1184 13.0114 49.5019 13.1179 49.9659 13.1179ZM60.6158 8.69318V15H57.5902V4.09091H60.4737V6.01562H60.6016C60.843 5.38116 61.2479 4.87926 61.8161 4.50994C62.3842 4.13589 63.0732 3.94886 63.8828 3.94886C64.6404 3.94886 65.3009 4.11458 65.8643 4.44602C66.4278 4.77746 66.8658 5.25095 67.1783 5.86648C67.4908 6.47727 67.647 7.20644 67.647 8.05398V15H64.6214V8.59375C64.6262 7.92614 64.4557 7.4053 64.1101 7.03125C63.7644 6.65246 63.2886 6.46307 62.6825 6.46307C62.2753 6.46307 61.9155 6.55066 61.603 6.72585C61.2952 6.90104 61.0537 7.15672 60.8786 7.4929C60.7081 7.82434 60.6205 8.22443 60.6158 8.69318Z" fill="#C23838"/>
</svg>
