<svg width="157" height="26" viewBox="0 0 157 26" fill="none" xmlns="http://www.w3.org/2000/svg">
<path d="M2.03338 1.27273V10H0.18821V1.27273H2.03338ZM5.33274 6.21591V10H3.5174V3.45455H5.24751V4.60938H5.32422C5.46911 4.22869 5.712 3.92756 6.05291 3.70597C6.39382 3.48153 6.80717 3.36932 7.29297 3.36932C7.74751 3.36932 8.14382 3.46875 8.48189 3.66761C8.81996 3.86648 9.08274 4.15057 9.27024 4.51989C9.45774 4.88636 9.55149 5.32386 9.55149 5.83239V10H7.73615V6.15625C7.73899 5.75568 7.63672 5.44318 7.42933 5.21875C7.22195 4.99148 6.93643 4.87784 6.5728 4.87784C6.32848 4.87784 6.11257 4.9304 5.92507 5.03551C5.74041 5.14062 5.59553 5.29403 5.49041 5.49574C5.38814 5.6946 5.33558 5.93466 5.33274 6.21591ZM14.4638 3.45455V4.81818H10.522V3.45455H14.4638ZM11.4169 1.88636H13.2322V7.98864C13.2322 8.15625 13.2578 8.28693 13.3089 8.38068C13.3601 8.47159 13.4311 8.53551 13.522 8.57244C13.6158 8.60937 13.7237 8.62784 13.8459 8.62784C13.9311 8.62784 14.0163 8.62074 14.1016 8.60653C14.1868 8.58949 14.2521 8.5767 14.2976 8.56818L14.5831 9.91903C14.4922 9.94744 14.3643 9.98011 14.1996 10.017C14.0348 10.0568 13.8345 10.081 13.5987 10.0895C13.1612 10.1065 12.7777 10.0483 12.4482 9.91477C12.1214 9.78125 11.8672 9.57386 11.6854 9.29261C11.5036 9.01136 11.4141 8.65625 11.4169 8.22727V1.88636ZM18.5589 10.1278C17.8857 10.1278 17.3061 9.99148 16.8203 9.71875C16.3374 9.44318 15.9652 9.05398 15.7038 8.55114C15.4425 8.04545 15.3118 7.44744 15.3118 6.7571C15.3118 6.08381 15.4425 5.4929 15.7038 4.98438C15.9652 4.47585 16.3331 4.07955 16.8075 3.79545C17.2848 3.51136 17.8445 3.36932 18.4865 3.36932C18.9183 3.36932 19.3203 3.43892 19.6925 3.57812C20.0675 3.71449 20.3942 3.92045 20.6726 4.19602C20.9538 4.47159 21.1726 4.81818 21.3288 5.2358C21.4851 5.65057 21.5632 6.13636 21.5632 6.69318V7.19176H16.0362V6.06676H19.8544C19.8544 5.8054 19.7976 5.57386 19.6839 5.37216C19.5703 5.17045 19.4126 5.01278 19.2109 4.89915C19.0121 4.78267 18.7805 4.72443 18.5163 4.72443C18.2408 4.72443 17.9964 4.78835 17.7834 4.91619C17.5732 5.04119 17.4084 5.21023 17.2891 5.4233C17.1697 5.63352 17.1087 5.8679 17.1058 6.12642V7.19602C17.1058 7.51989 17.1655 7.79972 17.2848 8.03551C17.407 8.27131 17.5788 8.45312 17.8004 8.58097C18.022 8.70881 18.2848 8.77273 18.5888 8.77273C18.7905 8.77273 18.9751 8.74432 19.1428 8.6875C19.3104 8.63068 19.4538 8.54545 19.5732 8.43182C19.6925 8.31818 19.7834 8.17898 19.8459 8.0142L21.5249 8.125C21.4396 8.52841 21.2649 8.88068 21.0007 9.18182C20.7393 9.48011 20.4013 9.71307 19.9865 9.88068C19.5746 10.0455 19.0987 10.1278 18.5589 10.1278ZM22.7479 10V3.45455H24.5078V4.59659H24.576C24.6953 4.19034 24.8956 3.88352 25.1768 3.67614C25.4581 3.46591 25.782 3.3608 26.1484 3.3608C26.2393 3.3608 26.3374 3.36648 26.4425 3.37784C26.5476 3.3892 26.6399 3.40483 26.7195 3.42472V5.03551C26.6342 5.00994 26.5163 4.98722 26.3658 4.96733C26.2152 4.94744 26.0774 4.9375 25.9524 4.9375C25.6854 4.9375 25.4467 4.99574 25.2365 5.11222C25.0291 5.22585 24.8643 5.38494 24.7422 5.58949C24.6229 5.79403 24.5632 6.02983 24.5632 6.29688V10H22.7479ZM29.337 10.1236C28.9194 10.1236 28.5472 10.0511 28.2205 9.90625C27.8938 9.75852 27.6353 9.54119 27.445 9.25426C27.2575 8.96449 27.1637 8.60369 27.1637 8.17188C27.1637 7.80824 27.2305 7.50284 27.364 7.25568C27.4975 7.00852 27.6793 6.80966 27.9094 6.65909C28.1396 6.50852 28.4009 6.39489 28.6935 6.31818C28.989 6.24148 29.2987 6.1875 29.6225 6.15625C30.0032 6.11648 30.31 6.07955 30.543 6.04545C30.7759 6.00852 30.945 5.95455 31.0501 5.88352C31.1552 5.8125 31.2077 5.70739 31.2077 5.56818V5.54261C31.2077 5.27273 31.1225 5.06392 30.9521 4.91619C30.7844 4.76847 30.5458 4.6946 30.2362 4.6946C29.9094 4.6946 29.6495 4.76705 29.4563 4.91193C29.2631 5.05398 29.1353 5.23295 29.0728 5.44886L27.3938 5.3125C27.479 4.91477 27.6467 4.57102 27.8967 4.28125C28.1467 3.98864 28.4691 3.7642 28.864 3.60795C29.2617 3.44886 29.7219 3.36932 30.2447 3.36932C30.6083 3.36932 30.9563 3.41193 31.2887 3.49716C31.6239 3.58239 31.9208 3.71449 32.1793 3.89347C32.4407 4.07244 32.6467 4.30256 32.7972 4.58381C32.9478 4.86222 33.0231 5.19602 33.0231 5.58523V10H31.3015V9.09233H31.2504C31.1452 9.29688 31.0046 9.47727 30.8285 9.63352C30.6523 9.78693 30.4407 9.90767 30.1935 9.99574C29.9464 10.081 29.6609 10.1236 29.337 10.1236ZM29.8569 8.87074C30.1239 8.87074 30.3597 8.81818 30.5643 8.71307C30.7688 8.60511 30.9293 8.46023 31.0458 8.27841C31.1623 8.09659 31.2205 7.89062 31.2205 7.66051V6.96591C31.1637 7.00284 31.0856 7.03693 30.9862 7.06818C30.8896 7.09659 30.7802 7.12358 30.658 7.14915C30.5359 7.17187 30.4137 7.19318 30.2915 7.21307C30.1694 7.23011 30.0586 7.24574 29.9592 7.25994C29.7461 7.29119 29.56 7.34091 29.4009 7.40909C29.2418 7.47727 29.1183 7.5696 29.0302 7.68608C28.9421 7.79972 28.8981 7.94176 28.8981 8.11222C28.8981 8.35938 28.9876 8.5483 29.1665 8.67898C29.3484 8.80682 29.5785 8.87074 29.8569 8.87074ZM37.3888 10.1278C36.7184 10.1278 36.1417 9.9858 35.6587 9.7017C35.1786 9.41477 34.8093 9.01705 34.5508 8.50852C34.2951 8 34.1673 7.41477 34.1673 6.75284C34.1673 6.08239 34.2965 5.49432 34.555 4.98864C34.8164 4.48011 35.1871 4.08381 35.6673 3.79972C36.1474 3.51278 36.7184 3.36932 37.3803 3.36932C37.9513 3.36932 38.4513 3.47301 38.8803 3.6804C39.3093 3.88778 39.6488 4.17898 39.8988 4.55398C40.1488 4.92898 40.2866 5.36932 40.3121 5.875H38.5991C38.5508 5.5483 38.4229 5.28551 38.2156 5.08665C38.011 4.88494 37.7425 4.78409 37.4102 4.78409C37.1289 4.78409 36.8832 4.8608 36.6729 5.0142C36.4656 5.16477 36.3036 5.38494 36.1871 5.67472C36.0707 5.96449 36.0124 6.31534 36.0124 6.72727C36.0124 7.14489 36.0692 7.5 36.1829 7.79261C36.2994 8.08523 36.4627 8.30824 36.6729 8.46165C36.8832 8.61506 37.1289 8.69176 37.4102 8.69176C37.6175 8.69176 37.8036 8.64915 37.9684 8.56392C38.136 8.47869 38.2738 8.35511 38.3817 8.19318C38.4925 8.02841 38.565 7.83097 38.5991 7.60085H40.3121C40.2837 8.10085 40.1474 8.54119 39.9031 8.92188C39.6616 9.29972 39.3278 9.59517 38.9016 9.80824C38.4755 10.0213 37.9712 10.1278 37.3888 10.1278ZM44.956 3.45455V4.81818H41.0142V3.45455H44.956ZM41.9091 1.88636H43.7244V7.98864C43.7244 8.15625 43.75 8.28693 43.8011 8.38068C43.8523 8.47159 43.9233 8.53551 44.0142 8.57244C44.108 8.60937 44.2159 8.62784 44.3381 8.62784C44.4233 8.62784 44.5085 8.62074 44.5938 8.60653C44.679 8.58949 44.7443 8.5767 44.7898 8.56818L45.0753 9.91903C44.9844 9.94744 44.8565 9.98011 44.6918 10.017C44.527 10.0568 44.3267 10.081 44.0909 10.0895C43.6534 10.1065 43.2699 10.0483 42.9403 9.91477C42.6136 9.78125 42.3594 9.57386 42.1776 9.29261C41.9957 9.01136 41.9063 8.65625 41.9091 8.22727V1.88636ZM46.1385 10V3.45455H47.9538V10H46.1385ZM47.0504 2.6108C46.7805 2.6108 46.549 2.52131 46.3558 2.34233C46.1655 2.16051 46.0703 1.94318 46.0703 1.69034C46.0703 1.44034 46.1655 1.22585 46.3558 1.04688C46.549 0.865057 46.7805 0.774147 47.0504 0.774147C47.3203 0.774147 47.5504 0.865057 47.7408 1.04688C47.9339 1.22585 48.0305 1.44034 48.0305 1.69034C48.0305 1.94318 47.9339 2.16051 47.7408 2.34233C47.5504 2.52131 47.3203 2.6108 47.0504 2.6108ZM52.3654 10.1278C51.7035 10.1278 51.131 9.98722 50.6481 9.70597C50.168 9.42187 49.7972 9.02699 49.5359 8.52131C49.2745 8.01278 49.1438 7.4233 49.1438 6.75284C49.1438 6.0767 49.2745 5.4858 49.5359 4.98011C49.7972 4.47159 50.168 4.0767 50.6481 3.79545C51.131 3.51136 51.7035 3.36932 52.3654 3.36932C53.0273 3.36932 53.5984 3.51136 54.0785 3.79545C54.5614 4.0767 54.9336 4.47159 55.195 4.98011C55.4563 5.4858 55.587 6.0767 55.587 6.75284C55.587 7.4233 55.4563 8.01278 55.195 8.52131C54.9336 9.02699 54.5614 9.42187 54.0785 9.70597C53.5984 9.98722 53.0273 10.1278 52.3654 10.1278ZM52.3739 8.72159C52.6751 8.72159 52.9265 8.63636 53.1282 8.46591C53.3299 8.29261 53.4819 8.05682 53.5842 7.75852C53.6893 7.46023 53.7418 7.12074 53.7418 6.74006C53.7418 6.35938 53.6893 6.01989 53.5842 5.72159C53.4819 5.4233 53.3299 5.1875 53.1282 5.0142C52.9265 4.84091 52.6751 4.75426 52.3739 4.75426C52.07 4.75426 51.8143 4.84091 51.6069 5.0142C51.4023 5.1875 51.2475 5.4233 51.1424 5.72159C51.0401 6.01989 50.989 6.35938 50.989 6.74006C50.989 7.12074 51.0401 7.46023 51.1424 7.75852C51.2475 8.05682 51.4023 8.29261 51.6069 8.46591C51.8143 8.63636 52.07 8.72159 52.3739 8.72159ZM58.5827 6.21591V10H56.7674V3.45455H58.4975V4.60938H58.5742C58.7191 4.22869 58.962 3.92756 59.3029 3.70597C59.6438 3.48153 60.0572 3.36932 60.543 3.36932C60.9975 3.36932 61.3938 3.46875 61.7319 3.66761C62.07 3.86648 62.3327 4.15057 62.5202 4.51989C62.7077 4.88636 62.8015 5.32386 62.8015 5.83239V10H60.9862V6.15625C60.989 5.75568 60.8867 5.44318 60.6793 5.21875C60.4719 4.99148 60.1864 4.87784 59.8228 4.87784C59.5785 4.87784 59.3626 4.9304 59.1751 5.03551C58.9904 5.14062 58.8455 5.29403 58.7404 5.49574C58.6381 5.6946 58.5856 5.93466 58.5827 6.21591ZM67.0437 10V1.27273H70.4869C71.1488 1.27273 71.7127 1.39915 72.1786 1.65199C72.6445 1.90199 72.9996 2.25 73.244 2.69602C73.4911 3.1392 73.6147 3.65057 73.6147 4.23011C73.6147 4.80966 73.4897 5.32102 73.2397 5.7642C72.9897 6.20739 72.6275 6.55256 72.1531 6.79972C71.6815 7.04687 71.1104 7.17045 70.44 7.17045H68.2454V5.69176H70.1417C70.4968 5.69176 70.7894 5.63068 71.0195 5.50852C71.2525 5.38352 71.4258 5.21165 71.5394 4.9929C71.6559 4.77131 71.7141 4.51705 71.7141 4.23011C71.7141 3.94034 71.6559 3.6875 71.5394 3.47159C71.4258 3.25284 71.2525 3.08381 71.0195 2.96449C70.7866 2.84233 70.4911 2.78125 70.1332 2.78125H68.8888V10H67.0437ZM74.7791 10V3.45455H76.5391V4.59659H76.6072C76.7266 4.19034 76.9268 3.88352 77.2081 3.67614C77.4893 3.46591 77.8132 3.3608 78.1797 3.3608C78.2706 3.3608 78.3686 3.36648 78.4737 3.37784C78.5788 3.3892 78.6712 3.40483 78.7507 3.42472V5.03551C78.6655 5.00994 78.5476 4.98722 78.397 4.96733C78.2464 4.94744 78.1087 4.9375 77.9837 4.9375C77.7166 4.9375 77.478 4.99574 77.2678 5.11222C77.0604 5.22585 76.8956 5.38494 76.7734 5.58949C76.6541 5.79403 76.5945 6.02983 76.5945 6.29688V10H74.7791ZM82.342 10.1278C81.68 10.1278 81.1076 9.98722 80.6246 9.70597C80.1445 9.42187 79.7738 9.02699 79.5124 8.52131C79.2511 8.01278 79.1204 7.4233 79.1204 6.75284C79.1204 6.0767 79.2511 5.4858 79.5124 4.98011C79.7738 4.47159 80.1445 4.0767 80.6246 3.79545C81.1076 3.51136 81.68 3.36932 82.342 3.36932C83.0039 3.36932 83.5749 3.51136 84.055 3.79545C84.538 4.0767 84.9102 4.47159 85.1715 4.98011C85.4329 5.4858 85.5636 6.0767 85.5636 6.75284C85.5636 7.4233 85.4329 8.01278 85.1715 8.52131C84.9102 9.02699 84.538 9.42187 84.055 9.70597C83.5749 9.98722 83.0039 10.1278 82.342 10.1278ZM82.3505 8.72159C82.6516 8.72159 82.9031 8.63636 83.1048 8.46591C83.3065 8.29261 83.4585 8.05682 83.5607 7.75852C83.6658 7.46023 83.7184 7.12074 83.7184 6.74006C83.7184 6.35938 83.6658 6.01989 83.5607 5.72159C83.4585 5.4233 83.3065 5.1875 83.1048 5.0142C82.9031 4.84091 82.6516 4.75426 82.3505 4.75426C82.0465 4.75426 81.7908 4.84091 81.5835 5.0142C81.3789 5.1875 81.2241 5.4233 81.119 5.72159C81.0167 6.01989 80.9656 6.35938 80.9656 6.74006C80.9656 7.12074 81.0167 7.46023 81.119 7.75852C81.2241 8.05682 81.3789 8.29261 81.5835 8.46591C81.7908 8.63636 82.0465 8.72159 82.3505 8.72159ZM88.0266 3.45455L89.2283 5.7429L90.4599 3.45455H92.3221L90.4258 6.72727L92.3732 10H90.5195L89.2283 7.73722L87.9585 10H86.0835L88.0266 6.72727L86.1516 3.45455H88.0266ZM94.521 12.4545C94.2908 12.4545 94.0749 12.4361 93.8732 12.3991C93.6744 12.3651 93.5096 12.321 93.3789 12.267L93.788 10.9119C94.0011 10.9773 94.1928 11.0128 94.3633 11.0185C94.5366 11.0241 94.6857 10.9844 94.8107 10.8991C94.9386 10.8139 95.0423 10.669 95.1218 10.4645L95.2283 10.1875L92.8803 3.45455H94.7894L96.1445 8.26136H96.2127L97.5806 3.45455H99.5025L96.9585 10.7074C96.8363 11.0597 96.6701 11.3665 96.4599 11.6278C96.2525 11.892 95.9897 12.0952 95.6715 12.2372C95.3533 12.3821 94.9698 12.4545 94.521 12.4545ZM103.243 1.27273H105.518L107.922 7.13636H108.024L110.428 1.27273H112.703V10H110.913V4.3196H110.841L108.582 9.95739H107.364L105.105 4.2983H105.033V10H103.243V1.27273ZM116.056 10.1236C115.638 10.1236 115.266 10.0511 114.939 9.90625C114.613 9.75852 114.354 9.54119 114.164 9.25426C113.976 8.96449 113.882 8.60369 113.882 8.17188C113.882 7.80824 113.949 7.50284 114.083 7.25568C114.216 7.00852 114.398 6.80966 114.628 6.65909C114.858 6.50852 115.12 6.39489 115.412 6.31818C115.708 6.24148 116.017 6.1875 116.341 6.15625C116.722 6.11648 117.029 6.07955 117.262 6.04545C117.495 6.00852 117.664 5.95455 117.769 5.88352C117.874 5.8125 117.926 5.70739 117.926 5.56818V5.54261C117.926 5.27273 117.841 5.06392 117.671 4.91619C117.503 4.76847 117.265 4.6946 116.955 4.6946C116.628 4.6946 116.368 4.76705 116.175 4.91193C115.982 5.05398 115.854 5.23295 115.792 5.44886L114.113 5.3125C114.198 4.91477 114.365 4.57102 114.615 4.28125C114.865 3.98864 115.188 3.7642 115.583 3.60795C115.98 3.44886 116.441 3.36932 116.963 3.36932C117.327 3.36932 117.675 3.41193 118.007 3.49716C118.343 3.58239 118.64 3.71449 118.898 3.89347C119.159 4.07244 119.365 4.30256 119.516 4.58381C119.667 4.86222 119.742 5.19602 119.742 5.58523V10H118.02V9.09233H117.969C117.864 9.29688 117.723 9.47727 117.547 9.63352C117.371 9.78693 117.159 9.90767 116.912 9.99574C116.665 10.081 116.38 10.1236 116.056 10.1236ZM116.576 8.87074C116.843 8.87074 117.078 8.81818 117.283 8.71307C117.488 8.60511 117.648 8.46023 117.765 8.27841C117.881 8.09659 117.939 7.89062 117.939 7.66051V6.96591C117.882 7.00284 117.804 7.03693 117.705 7.06818C117.608 7.09659 117.499 7.12358 117.377 7.14915C117.255 7.17187 117.132 7.19318 117.01 7.21307C116.888 7.23011 116.777 7.24574 116.678 7.25994C116.465 7.29119 116.279 7.34091 116.12 7.40909C115.961 7.47727 115.837 7.5696 115.749 7.68608C115.661 7.79972 115.617 7.94176 115.617 8.11222C115.617 8.35938 115.706 8.5483 115.885 8.67898C116.067 8.80682 116.297 8.87074 116.576 8.87074ZM122.966 6.21591V10H121.15V3.45455H122.88V4.60938H122.957C123.102 4.22869 123.345 3.92756 123.686 3.70597C124.027 3.48153 124.44 3.36932 124.926 3.36932C125.38 3.36932 125.777 3.46875 126.115 3.66761C126.453 3.86648 126.716 4.15057 126.903 4.51989C127.091 4.88636 127.184 5.32386 127.184 5.83239V10H125.369V6.15625C125.372 5.75568 125.27 5.44318 125.062 5.21875C124.855 4.99148 124.569 4.87784 124.206 4.87784C123.961 4.87784 123.745 4.9304 123.558 5.03551C123.373 5.14062 123.228 5.29403 123.123 5.49574C123.021 5.6946 122.968 5.93466 122.966 6.21591ZM130.482 10.1236C130.064 10.1236 129.692 10.0511 129.365 9.90625C129.038 9.75852 128.78 9.54119 128.589 9.25426C128.402 8.96449 128.308 8.60369 128.308 8.17188C128.308 7.80824 128.375 7.50284 128.509 7.25568C128.642 7.00852 128.824 6.80966 129.054 6.65909C129.284 6.50852 129.545 6.39489 129.838 6.31818C130.134 6.24148 130.443 6.1875 130.767 6.15625C131.148 6.11648 131.455 6.07955 131.688 6.04545C131.92 6.00852 132.089 5.95455 132.195 5.88352C132.3 5.8125 132.352 5.70739 132.352 5.56818V5.54261C132.352 5.27273 132.267 5.06392 132.097 4.91619C131.929 4.76847 131.69 4.6946 131.381 4.6946C131.054 4.6946 130.794 4.76705 130.601 4.91193C130.408 5.05398 130.28 5.23295 130.217 5.44886L128.538 5.3125C128.624 4.91477 128.791 4.57102 129.041 4.28125C129.291 3.98864 129.614 3.7642 130.009 3.60795C130.406 3.44886 130.866 3.36932 131.389 3.36932C131.753 3.36932 132.101 3.41193 132.433 3.49716C132.768 3.58239 133.065 3.71449 133.324 3.89347C133.585 4.07244 133.791 4.30256 133.942 4.58381C134.092 4.86222 134.168 5.19602 134.168 5.58523V10H132.446V9.09233H132.395C132.29 9.29688 132.149 9.47727 131.973 9.63352C131.797 9.78693 131.585 9.90767 131.338 9.99574C131.091 10.081 130.805 10.1236 130.482 10.1236ZM131.001 8.87074C131.268 8.87074 131.504 8.81818 131.709 8.71307C131.913 8.60511 132.074 8.46023 132.19 8.27841C132.307 8.09659 132.365 7.89062 132.365 7.66051V6.96591C132.308 7.00284 132.23 7.03693 132.131 7.06818C132.034 7.09659 131.925 7.12358 131.803 7.14915C131.68 7.17187 131.558 7.19318 131.436 7.21307C131.314 7.23011 131.203 7.24574 131.104 7.25994C130.891 7.29119 130.705 7.34091 130.545 7.40909C130.386 7.47727 130.263 7.5696 130.175 7.68608C130.087 7.79972 130.043 7.94176 130.043 8.11222C130.043 8.35938 130.132 8.5483 130.311 8.67898C130.493 8.80682 130.723 8.87074 131.001 8.87074ZM138.525 12.5909C137.937 12.5909 137.433 12.5099 137.012 12.348C136.594 12.1889 136.262 11.9716 136.015 11.696C135.768 11.4205 135.607 11.1108 135.533 10.767L137.212 10.5412C137.263 10.6719 137.344 10.794 137.455 10.9077C137.566 11.0213 137.712 11.1122 137.894 11.1804C138.079 11.2514 138.303 11.2869 138.567 11.2869C138.962 11.2869 139.288 11.1903 139.543 10.9972C139.802 10.8068 139.931 10.4872 139.931 10.0384V8.84091H139.854C139.775 9.02273 139.656 9.1946 139.496 9.35653C139.337 9.51847 139.133 9.65057 138.883 9.75284C138.633 9.85511 138.335 9.90625 137.988 9.90625C137.496 9.90625 137.049 9.79261 136.646 9.56534C136.245 9.33523 135.925 8.98437 135.687 8.51278C135.451 8.03835 135.333 7.43892 135.333 6.71449C135.333 5.97301 135.454 5.35369 135.695 4.85653C135.937 4.35937 136.258 3.98722 136.658 3.74006C137.062 3.4929 137.504 3.36932 137.984 3.36932C138.35 3.36932 138.657 3.43182 138.904 3.55682C139.151 3.67898 139.35 3.83239 139.501 4.01705C139.654 4.19886 139.772 4.37784 139.854 4.55398H139.923V3.45455H141.725V10.0639C141.725 10.6207 141.589 11.0866 141.316 11.4616C141.043 11.8366 140.665 12.1179 140.183 12.3054C139.702 12.4957 139.15 12.5909 138.525 12.5909ZM138.563 8.54261C138.856 8.54261 139.103 8.47017 139.305 8.32528C139.509 8.17756 139.665 7.96733 139.773 7.6946C139.884 7.41903 139.94 7.08949 139.94 6.70597C139.94 6.32244 139.886 5.99006 139.778 5.70881C139.67 5.42472 139.513 5.20455 139.309 5.0483C139.104 4.89205 138.856 4.81392 138.563 4.81392C138.265 4.81392 138.013 4.89489 137.809 5.05682C137.604 5.21591 137.45 5.4375 137.344 5.72159C137.239 6.00568 137.187 6.33381 137.187 6.70597C137.187 7.08381 137.239 7.41051 137.344 7.68608C137.452 7.95881 137.607 8.17045 137.809 8.32102C138.013 8.46875 138.265 8.54261 138.563 8.54261ZM146.153 10.1278C145.479 10.1278 144.9 9.99148 144.414 9.71875C143.931 9.44318 143.559 9.05398 143.298 8.55114C143.036 8.04545 142.906 7.44744 142.906 6.7571C142.906 6.08381 143.036 5.4929 143.298 4.98438C143.559 4.47585 143.927 4.07955 144.401 3.79545C144.879 3.51136 145.438 3.36932 146.08 3.36932C146.512 3.36932 146.914 3.43892 147.286 3.57812C147.661 3.71449 147.988 3.92045 148.266 4.19602C148.548 4.47159 148.766 4.81818 148.923 5.2358C149.079 5.65057 149.157 6.13636 149.157 6.69318V7.19176H143.63V6.06676H147.448C147.448 5.8054 147.391 5.57386 147.278 5.37216C147.164 5.17045 147.006 5.01278 146.805 4.89915C146.606 4.78267 146.374 4.72443 146.11 4.72443C145.835 4.72443 145.59 4.78835 145.377 4.91619C145.167 5.04119 145.002 5.21023 144.883 5.4233C144.763 5.63352 144.702 5.8679 144.7 6.12642V7.19602C144.7 7.51989 144.759 7.79972 144.879 8.03551C145.001 8.27131 145.173 8.45312 145.394 8.58097C145.616 8.70881 145.879 8.77273 146.183 8.77273C146.384 8.77273 146.569 8.74432 146.737 8.6875C146.904 8.63068 147.048 8.54545 147.167 8.43182C147.286 8.31818 147.377 8.17898 147.44 8.0142L149.119 8.125C149.033 8.52841 148.859 8.88068 148.594 9.18182C148.333 9.48011 147.995 9.71307 147.58 9.88068C147.168 10.0455 146.692 10.1278 146.153 10.1278ZM150.342 10V3.45455H152.102V4.59659H152.17C152.289 4.19034 152.489 3.88352 152.771 3.67614C153.052 3.46591 153.376 3.3608 153.742 3.3608C153.833 3.3608 153.931 3.36648 154.036 3.37784C154.141 3.3892 154.234 3.40483 154.313 3.42472V5.03551C154.228 5.00994 154.11 4.98722 153.96 4.96733C153.809 4.94744 153.671 4.9375 153.546 4.9375C153.279 4.9375 153.04 4.99574 152.83 5.11222C152.623 5.22585 152.458 5.38494 152.336 5.58949C152.217 5.79403 152.157 6.02983 152.157 6.29688V10H150.342ZM156.475 8.80682L156.428 9.27557C156.391 9.65057 156.32 10.0241 156.215 10.3963C156.113 10.7713 156.005 11.1108 155.891 11.4148C155.78 11.7188 155.691 11.9574 155.623 12.1307H154.446C154.489 11.9631 154.547 11.7287 154.621 11.4276C154.695 11.1293 154.765 10.794 154.83 10.4219C154.895 10.0497 154.936 9.67045 154.953 9.28409L154.975 8.80682H156.475ZM98.2092 16.2727V25H96.364V16.2727H98.2092ZM99.7273 16.2727H102.003L104.406 22.1364H104.509L106.912 16.2727H109.188V25H107.398V19.3196H107.325L105.067 24.9574H103.848L101.589 19.2983H101.517V25H99.7273V16.2727ZM112.672 25L110.175 16.2727H112.191L113.635 22.3366H113.708L115.301 16.2727H117.027L118.617 22.3494H118.694L120.138 16.2727H122.154L119.657 25H117.858L116.196 19.294H116.128L114.471 25H112.672ZM128.532 16.2727H130.377V21.9403C130.377 22.5767 130.225 23.1335 129.921 23.6108C129.62 24.0881 129.198 24.4602 128.656 24.7273C128.113 24.9915 127.481 25.1236 126.759 25.1236C126.035 25.1236 125.401 24.9915 124.859 24.7273C124.316 24.4602 123.894 24.0881 123.593 23.6108C123.292 23.1335 123.141 22.5767 123.141 21.9403V16.2727H124.987V21.7827C124.987 22.1151 125.059 22.4105 125.204 22.669C125.352 22.9276 125.559 23.1307 125.826 23.2784C126.093 23.4261 126.404 23.5 126.759 23.5C127.117 23.5 127.428 23.4261 127.692 23.2784C127.96 23.1307 128.165 22.9276 128.31 22.669C128.458 22.4105 128.532 22.1151 128.532 21.7827V16.2727ZM131.563 17.794V16.2727H138.73V17.794H136.059V25H134.235V17.794H131.563ZM141.398 16.2727V17.1932C141.398 17.4545 141.347 17.7216 141.245 17.9943C141.145 18.2642 141.012 18.5199 140.844 18.7614C140.676 19 140.493 19.2031 140.294 19.3707L139.493 18.8977C139.635 18.6733 139.76 18.4247 139.868 18.152C139.979 17.8793 140.034 17.5625 140.034 17.2017V16.2727H141.398ZM142.59 25V23.6705L145.697 20.794C145.961 20.5384 146.183 20.3082 146.362 20.1037C146.543 19.8991 146.681 19.6989 146.775 19.5028C146.869 19.304 146.915 19.0895 146.915 18.8594C146.915 18.6037 146.857 18.3835 146.741 18.1989C146.624 18.0114 146.465 17.8679 146.263 17.7685C146.062 17.6662 145.833 17.6151 145.577 17.6151C145.31 17.6151 145.077 17.669 144.879 17.777C144.68 17.8849 144.526 18.0398 144.418 18.2415C144.31 18.4432 144.256 18.6832 144.256 18.9616H142.505C142.505 18.3906 142.634 17.8949 142.893 17.4744C143.151 17.054 143.513 16.7287 143.979 16.4986C144.445 16.2685 144.982 16.1534 145.59 16.1534C146.215 16.1534 146.759 16.2642 147.222 16.4858C147.688 16.7045 148.05 17.0085 148.309 17.3977C148.567 17.7869 148.697 18.233 148.697 18.7358C148.697 19.0653 148.631 19.3906 148.501 19.7116C148.373 20.0327 148.144 20.3892 147.815 20.7812C147.485 21.1705 147.021 21.6378 146.421 22.1832L145.147 23.4318V23.4915H148.812V25H142.59ZM150.149 25V23.6705L153.255 20.794C153.52 20.5384 153.741 20.3082 153.92 20.1037C154.102 19.8991 154.24 19.6989 154.333 19.5028C154.427 19.304 154.474 19.0895 154.474 18.8594C154.474 18.6037 154.416 18.3835 154.299 18.1989C154.183 18.0114 154.024 17.8679 153.822 17.7685C153.62 17.6662 153.392 17.6151 153.136 17.6151C152.869 17.6151 152.636 17.669 152.437 17.777C152.238 17.8849 152.085 18.0398 151.977 18.2415C151.869 18.4432 151.815 18.6832 151.815 18.9616H150.064C150.064 18.3906 150.193 17.8949 150.451 17.4744C150.71 17.054 151.072 16.7287 151.538 16.4986C152.004 16.2685 152.541 16.1534 153.149 16.1534C153.774 16.1534 154.318 16.2642 154.781 16.4858C155.247 16.7045 155.609 17.0085 155.868 17.3977C156.126 17.7869 156.255 18.233 156.255 18.7358C156.255 19.0653 156.19 19.3906 156.059 19.7116C155.931 20.0327 155.703 20.3892 155.373 20.7812C155.044 21.1705 154.579 21.6378 153.98 22.1832L152.706 23.4318V23.4915H156.37V25H150.149Z" fill="black"/>
</svg>
