<svg width="116" height="12" viewBox="0 0 116 12" fill="none" xmlns="http://www.w3.org/2000/svg">
<path d="M8.77841 4.63636C8.77841 5.58807 8.59801 6.39773 8.23722 7.06534C7.87926 7.73295 7.39063 8.2429 6.77131 8.59517C6.15483 8.9446 5.46165 9.11932 4.69176 9.11932C3.91619 9.11932 3.22017 8.94318 2.60369 8.59091C1.98722 8.23864 1.5 7.72869 1.14205 7.06108C0.784091 6.39347 0.605114 5.58523 0.605114 4.63636C0.605114 3.68466 0.784091 2.875 1.14205 2.20739C1.5 1.53977 1.98722 1.03125 2.60369 0.681818C3.22017 0.329545 3.91619 0.153409 4.69176 0.153409C5.46165 0.153409 6.15483 0.329545 6.77131 0.681818C7.39063 1.03125 7.87926 1.53977 8.23722 2.20739C8.59801 2.875 8.77841 3.68466 8.77841 4.63636ZM6.90767 4.63636C6.90767 4.01989 6.81534 3.5 6.63068 3.0767C6.44886 2.65341 6.19176 2.33239 5.85938 2.11364C5.52699 1.89489 5.13778 1.78551 4.69176 1.78551C4.24574 1.78551 3.85653 1.89489 3.52415 2.11364C3.19176 2.33239 2.93324 2.65341 2.74858 3.0767C2.56676 3.5 2.47585 4.01989 2.47585 4.63636C2.47585 5.25284 2.56676 5.77273 2.74858 6.19602C2.93324 6.61932 3.19176 6.94034 3.52415 7.15909C3.85653 7.37784 4.24574 7.48722 4.69176 7.48722C5.13778 7.48722 5.52699 7.37784 5.85938 7.15909C6.19176 6.94034 6.44886 6.61932 6.63068 6.19602C6.81534 5.77273 6.90767 5.25284 6.90767 4.63636ZM18.1651 4.63636C18.1651 5.58807 17.9847 6.39773 17.6239 7.06534C17.266 7.73295 16.7773 8.2429 16.158 8.59517C15.5415 8.9446 14.8484 9.11932 14.0785 9.11932C13.3029 9.11932 12.6069 8.94318 11.9904 8.59091C11.3739 8.23864 10.8867 7.72869 10.5288 7.06108C10.1708 6.39347 9.99183 5.58523 9.99183 4.63636C9.99183 3.68466 10.1708 2.875 10.5288 2.20739C10.8867 1.53977 11.3739 1.03125 11.9904 0.681818C12.6069 0.329545 13.3029 0.153409 14.0785 0.153409C14.8484 0.153409 15.5415 0.329545 16.158 0.681818C16.7773 1.03125 17.266 1.53977 17.6239 2.20739C17.9847 2.875 18.1651 3.68466 18.1651 4.63636ZM16.2944 4.63636C16.2944 4.01989 16.2021 3.5 16.0174 3.0767C15.8356 2.65341 15.5785 2.33239 15.2461 2.11364C14.9137 1.89489 14.5245 1.78551 14.0785 1.78551C13.6325 1.78551 13.2433 1.89489 12.9109 2.11364C12.5785 2.33239 12.32 2.65341 12.1353 3.0767C11.9535 3.5 11.8626 4.01989 11.8626 4.63636C11.8626 5.25284 11.9535 5.77273 12.1353 6.19602C12.32 6.61932 12.5785 6.94034 12.9109 7.15909C13.2433 7.37784 13.6325 7.48722 14.0785 7.48722C14.5245 7.48722 14.9137 7.37784 15.2461 7.15909C15.5785 6.94034 15.8356 6.61932 16.0174 6.19602C16.2021 5.77273 16.2944 5.25284 16.2944 4.63636ZM20.6165 0.272727L22.7259 6.90341H22.8068L24.9205 0.272727H26.9659L23.9574 9H21.5795L18.5668 0.272727H20.6165ZM29.593 0.272727L31.7024 6.90341H31.7834L33.897 0.272727H35.9425L32.9339 9H30.5561L27.5433 0.272727H29.593ZM44.201 3.32812H42.3345C42.3004 3.08665 42.2308 2.87216 42.1257 2.68466C42.0206 2.49432 41.8857 2.33239 41.7209 2.19886C41.5561 2.06534 41.3658 1.96307 41.1499 1.89205C40.9368 1.82102 40.7053 1.78551 40.4553 1.78551C40.0036 1.78551 39.6101 1.89773 39.2749 2.12216C38.9396 2.34375 38.6797 2.66761 38.495 3.09375C38.3104 3.51705 38.218 4.03125 38.218 4.63636C38.218 5.25852 38.3104 5.78125 38.495 6.20455C38.6825 6.62784 38.9439 6.94744 39.2791 7.16335C39.6143 7.37926 40.0021 7.48722 40.4425 7.48722C40.6896 7.48722 40.9183 7.45455 41.1286 7.3892C41.3416 7.32386 41.5305 7.22869 41.6953 7.10369C41.8601 6.97585 41.9964 6.82102 42.1044 6.6392C42.2152 6.45739 42.2919 6.25 42.3345 6.01705L44.201 6.02557C44.1527 6.42614 44.032 6.8125 43.8388 7.18466C43.6484 7.55398 43.3913 7.88494 43.0675 8.17756C42.7464 8.46733 42.3629 8.69744 41.9169 8.8679C41.4737 9.03551 40.9723 9.11932 40.4126 9.11932C39.6342 9.11932 38.9382 8.94318 38.3246 8.59091C37.7138 8.23864 37.2308 7.72869 36.8757 7.06108C36.5234 6.39347 36.3473 5.58523 36.3473 4.63636C36.3473 3.68466 36.5263 2.875 36.8842 2.20739C37.2422 1.53977 37.728 1.03125 38.3416 0.681818C38.9553 0.329545 39.6456 0.153409 40.4126 0.153409C40.9183 0.153409 41.3871 0.224432 41.8189 0.366477C42.2536 0.508523 42.6385 0.715909 42.9737 0.988636C43.3089 1.25852 43.5817 1.58949 43.7919 1.98153C44.005 2.37358 44.1413 2.82244 44.201 3.32812ZM47.3693 0.272727V9H45.5241V0.272727H47.3693ZM50.8263 7.80682L50.7795 8.27557C50.7425 8.65057 50.6715 9.02415 50.5664 9.39631C50.4641 9.77131 50.3562 10.1108 50.2425 10.4148C50.1317 10.7188 50.0423 10.9574 49.9741 11.1307H48.7979C48.8406 10.9631 48.8988 10.7287 48.9727 10.4276C49.0465 10.1293 49.1161 9.79403 49.1815 9.42188C49.2468 9.04972 49.288 8.67045 49.305 8.28409L49.3263 7.80682H50.8263ZM56.7326 0.272727V9H54.8874V0.272727H56.7326ZM58.2507 0.272727H60.5263L62.9297 6.13636H63.032L65.4354 0.272727H67.7109V9H65.9212V3.3196H65.8487L63.5902 8.95739H62.3714L60.1129 3.2983H60.0405V9H58.2507V0.272727ZM71.1957 9L68.6985 0.272727H70.7141L72.1587 6.33665H72.2312L73.8249 0.272727H75.5508L77.1403 6.34943H77.217L78.6616 0.272727H80.6772L78.18 9H76.3817L74.7198 3.29403H74.6516L72.994 9H71.1957ZM87.0554 0.272727H88.9006V5.94034C88.9006 6.5767 88.7486 7.13352 88.4446 7.6108C88.1435 8.08807 87.7216 8.46023 87.179 8.72727C86.6364 8.99148 86.0043 9.12358 85.2827 9.12358C84.5582 9.12358 83.9247 8.99148 83.3821 8.72727C82.8395 8.46023 82.4176 8.08807 82.1165 7.6108C81.8153 7.13352 81.6648 6.5767 81.6648 5.94034V0.272727H83.5099V5.78267C83.5099 6.11506 83.5824 6.41051 83.7273 6.66903C83.875 6.92756 84.0824 7.13068 84.3494 7.27841C84.6165 7.42614 84.9276 7.5 85.2827 7.5C85.6406 7.5 85.9517 7.42614 86.2159 7.27841C86.483 7.13068 86.6889 6.92756 86.8338 6.66903C86.9815 6.41051 87.0554 6.11506 87.0554 5.78267V0.272727ZM90.0863 1.79403V0.272727H97.2539V1.79403H94.582V9H92.7582V1.79403H90.0863ZM99.9215 0.272727V1.19318C99.9215 1.45455 99.8704 1.72159 99.7681 1.99432C99.6687 2.2642 99.5352 2.51989 99.3675 2.76136C99.1999 3 99.0167 3.20312 98.8178 3.37074L98.0167 2.89773C98.1587 2.6733 98.2837 2.42472 98.3917 2.15199C98.5025 1.87926 98.5579 1.5625 98.5579 1.2017V0.272727H99.9215ZM101.114 9V7.67045L104.22 4.79403C104.484 4.53835 104.706 4.30824 104.885 4.10369C105.067 3.89915 105.205 3.69886 105.298 3.50284C105.392 3.30398 105.439 3.08949 105.439 2.85938C105.439 2.60369 105.381 2.38352 105.264 2.19886C105.148 2.01136 104.989 1.8679 104.787 1.76847C104.585 1.66619 104.357 1.61506 104.101 1.61506C103.834 1.61506 103.601 1.66903 103.402 1.77699C103.203 1.88494 103.05 2.03977 102.942 2.24148C102.834 2.44318 102.78 2.68324 102.78 2.96165H101.028C101.028 2.39062 101.158 1.89489 101.416 1.47443C101.675 1.05398 102.037 0.728693 102.503 0.498579C102.969 0.268466 103.506 0.153409 104.114 0.153409C104.739 0.153409 105.283 0.264204 105.746 0.485795C106.212 0.704545 106.574 1.00852 106.832 1.39773C107.091 1.78693 107.22 2.23295 107.22 2.7358C107.22 3.06534 107.155 3.39062 107.024 3.71165C106.896 4.03267 106.668 4.3892 106.338 4.78125C106.009 5.17045 105.544 5.63778 104.945 6.18324L103.67 7.43182V7.49148H107.335V9H101.114ZM111.898 9.11932C111.262 9.11932 110.695 9.00994 110.198 8.79119C109.703 8.5696 109.313 8.26562 109.026 7.87926C108.742 7.49006 108.596 7.04119 108.587 6.53267H110.445C110.456 6.74574 110.526 6.93324 110.654 7.09517C110.784 7.25426 110.958 7.37784 111.174 7.46591C111.39 7.55398 111.632 7.59801 111.902 7.59801C112.184 7.59801 112.432 7.5483 112.648 7.44886C112.864 7.34943 113.033 7.21165 113.155 7.03551C113.277 6.85937 113.338 6.65625 113.338 6.42614C113.338 6.19318 113.273 5.98722 113.142 5.80824C113.015 5.62642 112.83 5.48437 112.588 5.3821C112.35 5.27983 112.066 5.22869 111.736 5.22869H110.922V3.87358H111.736C112.015 3.87358 112.26 3.82528 112.473 3.72869C112.689 3.6321 112.857 3.49858 112.976 3.32812C113.096 3.15483 113.155 2.95312 113.155 2.72301C113.155 2.50426 113.103 2.3125 112.998 2.14773C112.895 1.98011 112.75 1.84943 112.563 1.75568C112.378 1.66193 112.162 1.61506 111.915 1.61506C111.665 1.61506 111.436 1.66051 111.229 1.75142C111.022 1.83949 110.855 1.96591 110.73 2.13068C110.605 2.29545 110.539 2.48864 110.53 2.71023H108.762C108.77 2.20739 108.914 1.7642 109.192 1.38068C109.471 0.997159 109.846 0.697443 110.317 0.481534C110.792 0.262784 111.327 0.153409 111.924 0.153409C112.526 0.153409 113.053 0.262784 113.505 0.481534C113.956 0.700284 114.307 0.995738 114.557 1.3679C114.81 1.73722 114.935 2.15199 114.932 2.61222C114.935 3.10085 114.783 3.50852 114.476 3.83523C114.172 4.16193 113.776 4.36932 113.287 4.45739V4.52557C113.929 4.60795 114.418 4.83097 114.753 5.1946C115.091 5.5554 115.259 6.0071 115.256 6.54972C115.259 7.04688 115.115 7.48864 114.826 7.875C114.539 8.26136 114.142 8.56534 113.637 8.78693C113.131 9.00852 112.551 9.11932 111.898 9.11932Z" fill="black"/>
</svg>
