<svg width="105" height="13" viewBox="0 0 105 13" fill="none" xmlns="http://www.w3.org/2000/svg">
<path d="M5.4929 3.78267C5.45881 3.43892 5.3125 3.17187 5.05398 2.98153C4.79545 2.79119 4.4446 2.69602 4.00142 2.69602C3.70028 2.69602 3.44602 2.73864 3.23864 2.82386C3.03125 2.90625 2.87216 3.02131 2.76136 3.16903C2.65341 3.31676 2.59943 3.48438 2.59943 3.67188C2.59375 3.82812 2.62642 3.96449 2.69744 4.08097C2.77131 4.19744 2.87216 4.2983 3 4.38352C3.12784 4.46591 3.27557 4.53835 3.44318 4.60085C3.6108 4.66051 3.78977 4.71165 3.98011 4.75426L4.7642 4.94176C5.14489 5.02699 5.49432 5.14062 5.8125 5.28267C6.13068 5.42472 6.40625 5.59943 6.6392 5.80682C6.87216 6.0142 7.05256 6.25852 7.1804 6.53977C7.31108 6.82102 7.37784 7.14347 7.38068 7.5071C7.37784 8.04119 7.24148 8.50426 6.97159 8.89631C6.70455 9.28551 6.31818 9.58807 5.8125 9.80398C5.30966 10.017 4.70313 10.1236 3.9929 10.1236C3.28835 10.1236 2.67472 10.0156 2.15199 9.79972C1.6321 9.58381 1.22585 9.2642 0.933239 8.84091C0.643466 8.41477 0.491477 7.88778 0.477273 7.25994H2.26278C2.28267 7.55256 2.36648 7.79687 2.5142 7.9929C2.66477 8.18608 2.86506 8.33239 3.11506 8.43182C3.3679 8.52841 3.65341 8.5767 3.97159 8.5767C4.28409 8.5767 4.5554 8.53125 4.78551 8.44034C5.01847 8.34943 5.19886 8.22301 5.3267 8.06108C5.45455 7.89915 5.51847 7.71307 5.51847 7.50284C5.51847 7.30682 5.46023 7.14205 5.34375 7.00852C5.23011 6.875 5.0625 6.76136 4.84091 6.66761C4.62216 6.57386 4.35369 6.48864 4.03551 6.41193L3.08523 6.1733C2.34943 5.99432 1.76847 5.71449 1.34233 5.33381C0.916193 4.95312 0.704545 4.44034 0.707386 3.79545C0.704545 3.26705 0.84517 2.8054 1.12926 2.41051C1.41619 2.01562 1.80966 1.70739 2.30966 1.4858C2.80966 1.2642 3.37784 1.15341 4.0142 1.15341C4.66193 1.15341 5.22727 1.2642 5.71023 1.4858C6.19602 1.70739 6.57386 2.01562 6.84375 2.41051C7.11364 2.8054 7.25284 3.26278 7.26136 3.78267H5.4929ZM8.58771 10V3.45455H10.4031V10H8.58771ZM9.49964 2.6108C9.22976 2.6108 8.99822 2.52131 8.80504 2.34233C8.6147 2.16051 8.51953 1.94318 8.51953 1.69034C8.51953 1.44034 8.6147 1.22585 8.80504 1.04688C8.99822 0.865057 9.22976 0.774147 9.49964 0.774147C9.76953 0.774147 9.99964 0.865057 10.19 1.04688C10.3832 1.22585 10.4798 1.44034 10.4798 1.69034C10.4798 1.94318 10.3832 2.16051 10.19 2.34233C9.99964 2.52131 9.76953 2.6108 9.49964 2.6108ZM11.8572 10V3.45455H13.5874V4.60938H13.6641C13.8004 4.22585 14.0277 3.9233 14.3459 3.7017C14.6641 3.48011 15.0447 3.36932 15.4879 3.36932C15.9368 3.36932 16.3189 3.48153 16.6342 3.70597C16.9496 3.92756 17.1598 4.22869 17.2649 4.60938H17.3331C17.4666 4.23438 17.7081 3.93466 18.0575 3.71023C18.4098 3.48295 18.826 3.36932 19.3061 3.36932C19.9169 3.36932 20.4126 3.56392 20.7933 3.95312C21.1768 4.33949 21.3686 4.88778 21.3686 5.59801V10H19.5575V5.95597C19.5575 5.59233 19.4609 5.3196 19.2678 5.13778C19.0746 4.95597 18.8331 4.86506 18.5433 4.86506C18.2138 4.86506 17.9567 4.97017 17.772 5.1804C17.5874 5.38778 17.495 5.66193 17.495 6.00284V10H15.7351V5.91761C15.7351 5.59659 15.6428 5.34091 15.4581 5.15057C15.2763 4.96023 15.0362 4.86506 14.7379 4.86506C14.5362 4.86506 14.3544 4.91619 14.1925 5.01847C14.0334 5.1179 13.907 5.25852 13.8132 5.44034C13.7195 5.61932 13.6726 5.82955 13.6726 6.07102V10H11.8572ZM27 7.21307V3.45455H28.8153V10H27.0724V8.81108H27.0043C26.8565 9.1946 26.6108 9.50284 26.267 9.7358C25.9261 9.96875 25.5099 10.0852 25.0185 10.0852C24.581 10.0852 24.196 9.9858 23.8636 9.78693C23.5313 9.58807 23.2713 9.3054 23.0838 8.93892C22.8991 8.57244 22.8054 8.13352 22.8026 7.62216V3.45455H24.6179V7.2983C24.6207 7.68466 24.7244 7.99006 24.929 8.21449C25.1335 8.43892 25.4077 8.55114 25.7514 8.55114C25.9702 8.55114 26.1747 8.50142 26.3651 8.40199C26.5554 8.29972 26.7088 8.14915 26.8253 7.95028C26.9446 7.75142 27.0028 7.50568 27 7.21307ZM32.0827 1.27273V10H30.2674V1.27273H32.0827ZM35.4034 10.1236C34.9858 10.1236 34.6136 10.0511 34.2869 9.90625C33.9602 9.75852 33.7017 9.54119 33.5114 9.25426C33.3239 8.96449 33.2301 8.60369 33.2301 8.17188C33.2301 7.80824 33.2969 7.50284 33.4304 7.25568C33.5639 7.00852 33.7457 6.80966 33.9759 6.65909C34.206 6.50852 34.4673 6.39489 34.7599 6.31818C35.0554 6.24148 35.3651 6.1875 35.6889 6.15625C36.0696 6.11648 36.3764 6.07955 36.6094 6.04545C36.8423 6.00852 37.0114 5.95455 37.1165 5.88352C37.2216 5.8125 37.2741 5.70739 37.2741 5.56818V5.54261C37.2741 5.27273 37.1889 5.06392 37.0185 4.91619C36.8509 4.76847 36.6122 4.6946 36.3026 4.6946C35.9759 4.6946 35.7159 4.76705 35.5227 4.91193C35.3295 5.05398 35.2017 5.23295 35.1392 5.44886L33.4602 5.3125C33.5455 4.91477 33.7131 4.57102 33.9631 4.28125C34.2131 3.98864 34.5355 3.7642 34.9304 3.60795C35.3281 3.44886 35.7884 3.36932 36.3111 3.36932C36.6747 3.36932 37.0227 3.41193 37.3551 3.49716C37.6903 3.58239 37.9872 3.71449 38.2457 3.89347C38.5071 4.07244 38.7131 4.30256 38.8636 4.58381C39.0142 4.86222 39.0895 5.19602 39.0895 5.58523V10H37.3679V9.09233H37.3168C37.2116 9.29688 37.071 9.47727 36.8949 9.63352C36.7188 9.78693 36.5071 9.90767 36.2599 9.99574C36.0128 10.081 35.7273 10.1236 35.4034 10.1236ZM35.9233 8.87074C36.1903 8.87074 36.4261 8.81818 36.6307 8.71307C36.8352 8.60511 36.9957 8.46023 37.1122 8.27841C37.2287 8.09659 37.2869 7.89062 37.2869 7.66051V6.96591C37.2301 7.00284 37.152 7.03693 37.0526 7.06818C36.956 7.09659 36.8466 7.12358 36.7244 7.14915C36.6023 7.17187 36.4801 7.19318 36.358 7.21307C36.2358 7.23011 36.125 7.24574 36.0256 7.25994C35.8125 7.29119 35.6264 7.34091 35.4673 7.40909C35.3082 7.47727 35.1847 7.5696 35.0966 7.68608C35.0085 7.79972 34.9645 7.94176 34.9645 8.11222C34.9645 8.35938 35.054 8.5483 35.233 8.67898C35.4148 8.80682 35.6449 8.87074 35.9233 8.87074ZM43.9794 3.45455V4.81818H40.0376V3.45455H43.9794ZM40.9325 1.88636H42.7479V7.98864C42.7479 8.15625 42.7734 8.28693 42.8246 8.38068C42.8757 8.47159 42.9467 8.53551 43.0376 8.57244C43.1314 8.60937 43.2393 8.62784 43.3615 8.62784C43.4467 8.62784 43.532 8.62074 43.6172 8.60653C43.7024 8.58949 43.7678 8.5767 43.8132 8.56818L44.0987 9.91903C44.0078 9.94744 43.88 9.98011 43.7152 10.017C43.5504 10.0568 43.3501 10.081 43.1143 10.0895C42.6768 10.1065 42.2933 10.0483 41.9638 9.91477C41.6371 9.78125 41.3828 9.57386 41.201 9.29261C41.0192 9.01136 40.9297 8.65625 40.9325 8.22727V1.88636ZM46.4659 10.1236C46.0511 10.1236 45.6918 10.0511 45.3878 9.90625C45.0866 9.75852 44.8651 9.53977 44.723 9.25C44.581 8.96023 44.5455 8.60085 44.6165 8.17188C44.679 7.80824 44.7969 7.50426 44.9702 7.25994C45.1463 7.01278 45.3608 6.81392 45.6136 6.66335C45.8665 6.51278 46.1463 6.39773 46.4531 6.31818C46.7628 6.23864 47.0824 6.18466 47.4119 6.15625C47.7926 6.11648 48.1023 6.07812 48.3409 6.04119C48.5824 6.00426 48.7628 5.9517 48.8821 5.88352C49.0014 5.8125 49.0739 5.70739 49.0994 5.56818V5.54261C49.142 5.27557 49.0923 5.06818 48.9503 4.92045C48.8111 4.76989 48.5881 4.6946 48.2812 4.6946C47.9574 4.6946 47.6818 4.76562 47.4545 4.90767C47.2301 5.04972 47.0696 5.23011 46.973 5.44886L45.3196 5.3125C45.4673 4.91477 45.6903 4.57102 45.9886 4.28125C46.2898 3.98864 46.652 3.7642 47.0753 3.60795C47.4986 3.44886 47.973 3.36932 48.4986 3.36932C48.8622 3.36932 49.2017 3.41193 49.517 3.49716C49.8352 3.58239 50.1094 3.71449 50.3395 3.89347C50.5724 4.07244 50.7401 4.30256 50.8423 4.58381C50.9474 4.86222 50.9688 5.19602 50.9062 5.58523L50.169 10H48.4474L48.6009 9.09233H48.5497C48.4105 9.29688 48.2401 9.47727 48.0384 9.63352C47.8366 9.78693 47.6051 9.90767 47.3438 9.99574C47.0824 10.081 46.7898 10.1236 46.4659 10.1236ZM47.1946 8.87074C47.4588 8.87074 47.7017 8.81818 47.9233 8.71307C48.1477 8.60511 48.3324 8.46023 48.4773 8.27841C48.625 8.09659 48.7188 7.89062 48.7585 7.66051L48.8693 6.96591C48.8125 7.00284 48.7301 7.03551 48.6222 7.06392C48.517 7.09233 48.402 7.11932 48.277 7.14489C48.1548 7.16761 48.0312 7.18892 47.9062 7.20881C47.7812 7.22585 47.669 7.2429 47.5696 7.25994C47.3509 7.29119 47.1548 7.34091 46.9815 7.40909C46.8082 7.47727 46.6676 7.5696 46.5597 7.68608C46.4517 7.79972 46.3849 7.94176 46.3594 8.11222C46.3196 8.35938 46.3778 8.5483 46.5341 8.67898C46.6932 8.80682 46.9134 8.87074 47.1946 8.87074ZM51.6115 10L53.0604 1.27273H56.5036C57.1626 1.27273 57.7053 1.3892 58.1314 1.62216C58.5604 1.85511 58.8615 2.18608 59.0348 2.61506C59.2109 3.04119 59.2521 3.54403 59.1584 4.12358C59.0618 4.70312 58.853 5.20028 58.532 5.61506C58.2138 6.02983 57.799 6.34943 57.2876 6.57386C56.7791 6.79545 56.1896 6.90625 55.5192 6.90625H53.2138L53.4695 5.4233H55.4723C55.8246 5.4233 56.1257 5.375 56.3757 5.27841C56.6257 5.18182 56.8232 5.03693 56.968 4.84375C57.1158 4.65057 57.2124 4.41051 57.2578 4.12358C57.3061 3.83097 57.2891 3.58665 57.2067 3.39062C57.1243 3.19176 56.9751 3.04119 56.7592 2.93892C56.5433 2.83381 56.2592 2.78125 55.907 2.78125H54.6626L53.4567 10H51.6115ZM56.9808 6.02841L58.4936 10H56.4567L54.9908 6.02841H56.9808ZM62.0412 8.80682L61.9943 9.27557C61.9574 9.65057 61.8864 10.0241 61.7812 10.3963C61.679 10.7713 61.571 11.1108 61.4574 11.4148C61.3466 11.7188 61.2571 11.9574 61.1889 12.1307H60.0128C60.0554 11.9631 60.1136 11.7287 60.1875 11.4276C60.2614 11.1293 60.331 10.794 60.3963 10.4219C60.4616 10.0497 60.5028 9.67045 60.5199 9.28409L60.5412 8.80682H62.0412ZM73.8026 4.32812H71.9361C71.902 4.08665 71.8324 3.87216 71.7273 3.68466C71.6222 3.49432 71.4872 3.33239 71.3224 3.19886C71.1577 3.06534 70.9673 2.96307 70.7514 2.89205C70.5384 2.82102 70.3068 2.78551 70.0568 2.78551C69.6051 2.78551 69.2116 2.89773 68.8764 3.12216C68.5412 3.34375 68.2813 3.66761 68.0966 4.09375C67.9119 4.51705 67.8196 5.03125 67.8196 5.63636C67.8196 6.25852 67.9119 6.78125 68.0966 7.20455C68.2841 7.62784 68.5455 7.94744 68.8807 8.16335C69.2159 8.37926 69.6037 8.48722 70.044 8.48722C70.2912 8.48722 70.5199 8.45455 70.7301 8.3892C70.9432 8.32386 71.1321 8.22869 71.2969 8.10369C71.4616 7.97585 71.598 7.82102 71.706 7.6392C71.8168 7.45739 71.8935 7.25 71.9361 7.01705L73.8026 7.02557C73.7543 7.42614 73.6335 7.8125 73.4403 8.18466C73.25 8.55398 72.9929 8.88494 72.669 9.17756C72.348 9.46733 71.9645 9.69744 71.5185 9.8679C71.0753 10.0355 70.5739 10.1193 70.0142 10.1193C69.2358 10.1193 68.5398 9.94318 67.9261 9.59091C67.3153 9.23864 66.8324 8.72869 66.4773 8.06108C66.125 7.39347 65.9489 6.58523 65.9489 5.63636C65.9489 4.68466 66.1278 3.875 66.4858 3.20739C66.8438 2.53977 67.3295 2.03125 67.9432 1.68182C68.5568 1.32955 69.2472 1.15341 70.0142 1.15341C70.5199 1.15341 70.9886 1.22443 71.4205 1.36648C71.8551 1.50852 72.2401 1.71591 72.5753 1.98864C72.9105 2.25852 73.1832 2.58949 73.3935 2.98153C73.6065 3.37358 73.7429 3.82244 73.8026 4.32812ZM75.1257 10V1.27273H76.9709V4.87358H80.7166V1.27273H82.5575V10H80.7166V6.39489H76.9709V10H75.1257ZM85.924 1.27273V10H84.0788V1.27273H85.924ZM88.9293 1.27273V2.19318C88.9293 2.45455 88.8782 2.72159 88.7759 2.99432C88.6765 3.2642 88.543 3.51989 88.3754 3.76136C88.2077 4 88.0245 4.20312 87.8256 4.37074L87.0245 3.89773C87.1665 3.6733 87.2915 3.42472 87.3995 3.15199C87.5103 2.87926 87.5657 2.5625 87.5657 2.2017V1.27273H88.9293ZM90.1214 10V8.67045L93.228 5.79403C93.4922 5.53835 93.7138 5.30824 93.8928 5.10369C94.0746 4.89915 94.2124 4.69886 94.3061 4.50284C94.3999 4.30398 94.4467 4.08949 94.4467 3.85938C94.4467 3.60369 94.3885 3.38352 94.272 3.19886C94.1555 3.01136 93.9964 2.8679 93.7947 2.76847C93.593 2.66619 93.3643 2.61506 93.1087 2.61506C92.8416 2.61506 92.6087 2.66903 92.4098 2.77699C92.2109 2.88494 92.0575 3.03977 91.9496 3.24148C91.8416 3.44318 91.7876 3.68324 91.7876 3.96165H90.0362C90.0362 3.39062 90.1655 2.89489 90.424 2.47443C90.6825 2.05398 91.0447 1.72869 91.5107 1.49858C91.9766 1.26847 92.5135 1.15341 93.1214 1.15341C93.7464 1.15341 94.2905 1.2642 94.7536 1.4858C95.2195 1.70455 95.5817 2.00852 95.8402 2.39773C96.0987 2.78693 96.228 3.23295 96.228 3.7358C96.228 4.06534 96.1626 4.39062 96.032 4.71165C95.9041 5.03267 95.6754 5.3892 95.3459 5.78125C95.0163 6.17045 94.5518 6.63778 93.9524 7.18324L92.6783 8.43182V8.49148H96.343V10H90.1214ZM100.906 10.1193C100.27 10.1193 99.7028 10.0099 99.2056 9.79119C98.7113 9.5696 98.3207 9.26562 98.0337 8.87926C97.7496 8.49006 97.6033 8.04119 97.5948 7.53267H99.4528C99.4641 7.74574 99.5337 7.93324 99.6616 8.09517C99.7923 8.25426 99.9656 8.37784 100.181 8.46591C100.397 8.55398 100.64 8.59801 100.91 8.59801C101.191 8.59801 101.44 8.5483 101.656 8.44886C101.872 8.34943 102.041 8.21165 102.163 8.03551C102.285 7.85937 102.346 7.65625 102.346 7.42614C102.346 7.19318 102.281 6.98722 102.15 6.80824C102.022 6.62642 101.838 6.48437 101.596 6.3821C101.358 6.27983 101.074 6.22869 100.744 6.22869H99.93V4.87358H100.744C101.022 4.87358 101.268 4.82528 101.481 4.72869C101.697 4.6321 101.865 4.49858 101.984 4.32812C102.103 4.15483 102.163 3.95312 102.163 3.72301C102.163 3.50426 102.11 3.3125 102.005 3.14773C101.903 2.98011 101.758 2.84943 101.571 2.75568C101.386 2.66193 101.17 2.61506 100.923 2.61506C100.673 2.61506 100.444 2.66051 100.237 2.75142C100.029 2.83949 99.8633 2.96591 99.7383 3.13068C99.6133 3.29545 99.5465 3.48864 99.538 3.71023H97.7695C97.7781 3.20739 97.9215 2.7642 98.1999 2.38068C98.4783 1.99716 98.8533 1.69744 99.3249 1.48153C99.7994 1.26278 100.335 1.15341 100.931 1.15341C101.534 1.15341 102.061 1.26278 102.512 1.48153C102.964 1.70028 103.315 1.99574 103.565 2.3679C103.818 2.73722 103.943 3.15199 103.94 3.61222C103.943 4.10085 103.791 4.50852 103.484 4.83523C103.18 5.16193 102.784 5.36932 102.295 5.45739V5.52557C102.937 5.60795 103.426 5.83097 103.761 6.1946C104.099 6.5554 104.267 7.0071 104.264 7.54972C104.267 8.04688 104.123 8.48864 103.833 8.875C103.547 9.26136 103.15 9.56534 102.645 9.78693C102.139 10.0085 101.559 10.1193 100.906 10.1193Z" fill="black"/>
</svg>
